M48
; DRILL file {KiCad (6.0.2)} date Tue Nov  8 23:05:12 2022
; FORMAT={-:-/ absolute / inch / decimal}
; #@! TF.CreationDate,2022-11-08T23:05:12+10:30
; #@! TF.GenerationSoftware,Kicad,Pcbnew,(6.0.2)
; #@! TF.FileFunction,Plated,1,2,PTH
FMAT,2
INCH
; #@! TA.AperFunction,Plated,PTH,ViaDrill
T1C0.0157
; #@! TA.AperFunction,Plated,PTH,ComponentDrill
T2C0.0197
; #@! TA.AperFunction,Plated,PTH,ComponentDrill
T3C0.0315
; #@! TA.AperFunction,Plated,PTH,ComponentDrill
T4C0.0394
; #@! TA.AperFunction,Plated,PTH,ComponentDrill
T5C0.1260
%
G90
G05
T1
X5.29Y-3.9
X5.29Y-3.94
X5.29Y-3.98
X5.29Y-4.02
X5.29Y-4.06
X5.29Y-4.1
X5.39Y-3.9
X5.39Y-3.94
X5.39Y-3.98
X5.39Y-4.02
X5.39Y-4.06
X5.39Y-4.1
X5.46Y-3.01
X6.31Y-2.34
X6.31Y-2.39
X6.31Y-3.35
X6.34Y-3.3
X6.36Y-2.34
X6.36Y-2.39
X6.37Y-3.25
X6.41Y-2.39
X6.4103Y-2.3397
X6.46Y-2.34
X6.46Y-2.39
X6.46Y-2.88
X6.51Y-2.34
X6.51Y-2.39
X6.51Y-2.88
X6.56Y-2.34
X6.56Y-2.39
X6.61Y-2.34
X6.61Y-2.39
X6.66Y-2.34
X6.66Y-2.39
X6.67Y-2.64
X6.67Y-2.89
X6.71Y-2.34
X6.71Y-2.39
X6.76Y-2.34
X6.76Y-2.39
X6.7998Y-2.6598
X6.81Y-2.34
X6.81Y-2.39
X6.86Y-2.34
X6.86Y-2.39
X6.9103Y-2.3397
X6.9103Y-2.3897
X7.03Y-2.69
T2
X3.0853Y-2.9168
X3.0853Y-5.4955
X3.113Y-2.85
X3.113Y-2.9836
X3.113Y-5.4287
X3.113Y-5.5623
X3.1798Y-2.8223
X3.1798Y-3.0113
X3.1798Y-5.401
X3.1798Y-5.59
X3.2466Y-2.85
X3.2466Y-2.9836
X3.2466Y-5.4287
X3.2466Y-5.5623
X3.2743Y-2.9168
X3.2743Y-5.4955
X8.5971Y-2.9168
X8.5971Y-5.4955
X8.6248Y-2.85
X8.6248Y-2.9836
X8.6248Y-5.4287
X8.6248Y-5.5623
X8.6916Y-2.8223
X8.6916Y-3.0113
X8.6916Y-5.401
X8.6916Y-5.59
X8.7584Y-2.85
X8.7584Y-2.9836
X8.7584Y-5.4287
X8.7584Y-5.5623
X8.7861Y-2.9168
X8.7861Y-5.4955
T3
X3.23Y-3.79
X3.23Y-4.59
X3.33Y-3.79
X3.33Y-4.59
X3.43Y-3.79
X3.43Y-4.59
X3.53Y-3.79
X3.53Y-4.59
X3.63Y-3.79
X3.63Y-4.59
X3.73Y-3.79
X3.73Y-4.59
X3.83Y-3.79
X3.83Y-4.59
X3.93Y-3.79
X3.93Y-4.59
X4.03Y-3.79
X4.03Y-4.59
X4.13Y-3.79
X4.13Y-4.59
X4.23Y-3.79
X4.23Y-4.59
X4.33Y-3.79
X4.33Y-4.59
X4.43Y-3.79
X4.53Y-3.79
X4.63Y-3.79
X4.73Y-3.79
X6.91Y-3.3
X6.91Y-3.7
X6.91Y-4.1
X7.01Y-3.3
X7.01Y-3.7
X7.01Y-4.1
X7.11Y-3.3
X7.11Y-3.7
X7.11Y-4.1
X7.3904Y-3.3
X7.4Y-3.7
X7.4Y-4.1
X7.4904Y-3.3
X7.5Y-3.7
X7.5Y-4.1
X7.5904Y-3.3
X7.6Y-3.7
X7.6Y-4.1
T4
X3.43Y-4.94
X3.53Y-4.94
X3.63Y-4.94
X3.73Y-4.94
X3.83Y-4.94
X3.93Y-4.94
X4.03Y-4.94
X4.8924Y-3.1302
X4.8924Y-3.2302
X4.8924Y-3.3302
X5.84Y-4.25
X5.96Y-4.25
X6.09Y-4.25
X6.23Y-4.25
X6.37Y-4.25
X6.51Y-4.25
T5
X3.1798Y-2.9168
X3.1798Y-5.4955
X8.6916Y-2.9168
X8.6916Y-5.4955
T0
M30
